<svg xmlns="http://www.w3.org/2000/svg" width="14" height="9" viewBox="0 0 14 9" fill="none">
  <path d="M0.333101 2.00317C0.332087 1.8277 0.36572 1.65375 0.432073 1.4913C0.498425 1.32885 0.596194 1.18109 0.719769 1.05651C0.84372 0.931536 0.991187 0.832344 1.15367 0.764652C1.31614 0.696961 1.49042 0.662109 1.66644 0.662109C1.84245 0.662109 2.01672 0.696961 2.1792 0.764652C2.34168 0.832344 2.48915 0.931536 2.6131 1.05651L6.99977 5.46984L11.4131 1.22984C11.6629 0.981506 12.0009 0.842117 12.3531 0.842117C12.7053 0.842117 13.0433 0.981506 13.2931 1.22984C13.4181 1.35379 13.5173 1.50126 13.585 1.66374C13.6526 1.82622 13.6875 2.00049 13.6875 2.17651C13.6875 2.35252 13.6526 2.5268 13.585 2.68928C13.5173 2.85176 13.4181 2.99922 13.2931 3.12317L7.95977 8.26984C7.71053 8.51414 7.37544 8.65098 7.02644 8.65098C6.67743 8.65098 6.34234 8.51414 6.0931 8.26984L0.759768 2.93651C0.630525 2.81683 0.526277 2.67273 0.453043 2.51253C0.37981 2.35234 0.339045 2.17922 0.333101 2.00317Z" fill="#335642"/>
</svg>