<svg width="22" height="28" viewBox="0 0 22 28" fill="none" xmlns="http://www.w3.org/2000/svg">
<path d="M0.333344 23.3334V21.1111H3.00001V11.2444C3.00001 9.3853 3.5519 7.72419 4.65568 6.26108C5.75923 4.79819 7.20734 3.86675 9.00001 3.46675V2.66675C9.00001 2.11119 9.19446 1.63897 9.58334 1.25008C9.97223 0.861192 10.4445 0.666748 11 0.666748C11.5556 0.666748 12.0278 0.861192 12.4167 1.25008C12.8056 1.63897 13 2.11119 13 2.66675V3.46675C14.7927 3.86675 16.2408 4.79819 17.3443 6.26108C18.4481 7.72419 19 9.3853 19 11.2444V21.1111H21.6667V23.3334H0.333344ZM11 27.3334C10.2667 27.3334 9.6389 27.0723 9.11668 26.5501C8.59445 26.0279 8.33334 25.4001 8.33334 24.6667H13.6667C13.6667 25.4001 13.4056 26.0279 12.8833 26.5501C12.3611 27.0723 11.7333 27.3334 11 27.3334Z" fill="white"/>
</svg>
