<svg width="60" height="56" viewBox="0 0 60 56" fill="none" xmlns="http://www.w3.org/2000/svg">
<path d="M48.797 14.7554C48.1555 10.9429 46.2677 7.4636 43.3806 4.82325C40.1727 1.88679 36.0025 0.270508 31.6595 0.270508C28.3035 0.270508 25.0339 1.23288 22.2332 3.04657C19.9013 4.55182 17.9642 6.5876 16.5947 8.98118C16.0025 8.87014 15.3856 8.80845 14.7687 8.80845C9.52498 8.80845 5.25601 13.0774 5.25601 18.3211C5.25601 18.9997 5.33004 19.6536 5.45342 20.2952C2.06046 22.7628 0 26.7357 0 30.9676C0 34.3853 1.27082 37.7042 3.59038 40.3322C5.97162 43.0219 9.11783 44.6135 12.4738 44.7986C12.5108 44.7986 12.5355 44.7986 12.5725 44.7986H23.1832C24.1086 44.7986 24.8489 44.0583 24.8489 43.1329C24.8489 42.2076 24.1086 41.4673 23.1832 41.4673H12.6218C7.57557 41.1588 3.33128 36.3593 3.33128 30.9553C3.33128 27.4636 5.20666 24.2064 8.22949 22.442C8.93276 22.0349 9.22887 21.1835 8.95743 20.4186C8.71067 19.7523 8.58729 19.049 8.58729 18.2964C8.58729 14.8911 11.3634 12.115 14.7687 12.115C15.4966 12.115 16.2122 12.2384 16.8785 12.4852C17.6928 12.7813 18.5935 12.4112 18.9636 11.6339C21.2708 6.73565 26.2554 3.57711 31.6718 3.57711C38.9513 3.57711 44.9599 9.03053 45.6508 16.2606C45.7249 17.0133 46.2924 17.6178 47.0327 17.7412C52.5231 18.6789 56.6687 23.7498 56.6687 29.5364C56.6687 35.6684 51.8445 40.9985 45.8976 41.455H36.8044C35.8791 41.455 35.1388 42.1952 35.1388 43.1206C35.1388 44.046 35.8791 44.7862 36.8044 44.7862H45.9593C45.9963 44.7862 46.0333 44.7862 46.0827 44.7862C49.8458 44.5148 53.3621 42.7875 55.9778 39.9004C58.5811 37.0379 60 33.3612 60 29.5364C59.9877 22.6147 55.2622 16.458 48.797 14.7554Z" fill="#094646"/>
<path d="M40.0001 32.5468C40.654 31.8929 40.654 30.8442 40.0001 30.1902L31.1784 21.3685C30.8699 21.0601 30.4381 20.875 30.0062 20.875C29.5744 20.875 29.1426 21.0477 28.8341 21.3685L20.0124 30.1902C19.3585 30.8442 19.3585 31.8929 20.0124 32.5468C20.3332 32.8676 20.765 33.0403 21.1845 33.0403C21.604 33.0403 22.0359 32.8799 22.3566 32.5468L28.3406 26.5628V54.0644C28.3406 54.9897 29.0809 55.73 30.0062 55.73C30.9316 55.73 31.6719 54.9897 31.6719 54.0644V26.5628L37.6558 32.5468C38.2974 33.2007 39.3462 33.2007 40.0001 32.5468Z" fill="#094646"/>
</svg>
