<svg width="114" height="100" viewBox="0 0 114 100" fill="none" xmlns="http://www.w3.org/2000/svg">
<path d="M5.1571 38.5778L57.0554 0.000152588L109.347 41.3228L59.7294 70.8248L32.7911 64.6661L5.1571 38.5778Z" fill="#EDEFF0"/>
<path d="M35.0637 89.0469H9.42472C9.26729 89.0471 9.11136 89.0161 8.96585 88.9559C8.82035 88.8956 8.68812 88.8071 8.57673 88.6955C8.46533 88.5839 8.37697 88.4514 8.31667 88.3056C8.25638 88.1597 8.22534 88.0033 8.22534 87.8454C8.22534 87.6875 8.25638 87.5312 8.31667 87.3853C8.37697 87.2395 8.46533 87.107 8.57673 86.9954C8.68812 86.8838 8.82035 86.7953 8.96585 86.735C9.11136 86.6748 9.26729 86.6438 9.42472 86.644H35.0637C35.2212 86.6438 35.3771 86.6748 35.5226 86.735C35.6681 86.7953 35.8003 86.8838 35.9117 86.9954C36.0231 87.107 36.1115 87.2395 36.1718 87.3853C36.2321 87.5312 36.2631 87.6875 36.2631 87.8454C36.2631 88.0033 36.2321 88.1597 36.1718 88.3056C36.1115 88.4514 36.0231 88.5839 35.9117 88.6955C35.8003 88.8071 35.6681 88.8956 35.5226 88.9559C35.3771 89.0161 35.2212 89.0471 35.0637 89.0469Z" fill="#2B363C"/>
<path d="M18.6234 83.8816H9.42472C9.26729 83.8819 9.11136 83.8509 8.96585 83.7906C8.82035 83.7304 8.68812 83.6419 8.57673 83.5303C8.46533 83.4187 8.37697 83.2862 8.31667 83.1404C8.25638 82.9945 8.22534 82.8381 8.22534 82.6802C8.22534 82.5223 8.25638 82.366 8.31667 82.2201C8.37697 82.0743 8.46533 81.9418 8.57673 81.8302C8.68812 81.7186 8.82035 81.6301 8.96585 81.5698C9.11136 81.5095 9.26729 81.4786 9.42472 81.4788H18.6234C18.7809 81.4786 18.9368 81.5095 19.0823 81.5698C19.2278 81.6301 19.36 81.7186 19.4714 81.8302C19.5828 81.9418 19.6712 82.0743 19.7315 82.2201C19.7918 82.366 19.8228 82.5223 19.8228 82.6802C19.8228 82.8381 19.7918 82.9945 19.7315 83.1404C19.6712 83.2862 19.5828 83.4187 19.4714 83.5303C19.36 83.6419 19.2278 83.7304 19.0823 83.7906C18.9368 83.8509 18.7809 83.8819 18.6234 83.8816Z" fill="#2B363C"/>
<path d="M57.7837 60.0652C57.5888 60.0654 57.3957 60.0274 57.2154 59.9535L25.2081 46.6331V4.93818C25.2086 4.56949 25.3548 4.21601 25.6147 3.95531C25.8746 3.6946 26.2271 3.54795 26.5947 3.54752H87.9982C88.3658 3.54795 88.7182 3.6946 88.9781 3.95531C89.2381 4.21601 89.3843 4.56949 89.3847 4.93818V46.6622L89.3245 46.688L58.3692 59.947C58.1838 60.0251 57.9847 60.0653 57.7837 60.0652Z" fill="white"/>
<path d="M57.7851 60.1644C57.5773 60.1647 57.3714 60.1243 57.179 60.0455L25.1105 46.6995V4.93823C25.1109 4.5432 25.2676 4.16447 25.5461 3.88514C25.8246 3.6058 26.2022 3.44868 26.596 3.44823H87.9995C88.3934 3.44868 88.771 3.6058 89.0495 3.88514C89.328 4.16447 89.4847 4.5432 89.4851 4.93823V46.7279L58.4095 60.0383C58.2118 60.1218 57.9995 60.1646 57.7851 60.1644ZM25.5066 46.4341L57.3301 59.6782C57.6269 59.799 57.9593 59.797 58.2547 59.6726L89.089 46.4656V4.93823C89.0886 4.64854 88.9738 4.37082 88.7695 4.16598C88.5653 3.96114 88.2884 3.84591 87.9996 3.84556H26.596C26.3072 3.84591 26.0303 3.96114 25.8261 4.16598C25.6219 4.37082 25.507 4.64854 25.5066 4.93823L25.5066 46.4341Z" fill="#AAAFB1"/>
<path d="M112.065 36.8239H112.025L89.2863 46.5625L58.1746 59.8871C58.053 59.9384 57.9226 59.9651 57.7907 59.9658C57.6588 59.9665 57.5281 59.9411 57.406 59.8911L25.3078 46.5347L2.01012 36.8398L1.97452 36.8239H1.93487C1.56727 36.8243 1.21483 36.9709 0.954895 37.2317C0.694958 37.4924 0.548748 37.8458 0.54834 38.2145V98.6092C0.548748 98.9779 0.694958 99.3314 0.954895 99.5921C1.21483 99.8528 1.56727 99.9994 1.93487 99.9999H112.065C112.433 99.9994 112.785 99.8528 113.045 99.5921C113.305 99.3314 113.451 98.9779 113.452 98.6092V38.2145C113.451 37.8458 113.305 37.4924 113.045 37.2317C112.785 36.9709 112.433 36.8243 112.065 36.8239ZM113.055 98.6092C113.055 98.8726 112.951 99.1252 112.765 99.3115C112.58 99.4977 112.328 99.6024 112.065 99.6025H1.93487C1.67224 99.6024 1.42039 99.4977 1.23468 99.3115C1.04897 99.1252 0.944596 98.8726 0.944492 98.6092V38.2145C0.944851 37.9577 1.0442 37.7109 1.22175 37.5258C1.39931 37.3406 1.64134 37.2315 1.89725 37.2212L25.3078 46.9638L57.2535 60.2586C57.5993 60.3997 57.9868 60.3976 58.3311 60.2526L89.2863 46.9936L112.105 37.2212C112.36 37.2323 112.602 37.3417 112.779 37.5267C112.956 37.7117 113.055 37.9581 113.055 38.2145V98.6092Z" fill="#80878A"/>
<mask id="mask0_1_362" style="mask-type:alpha" maskUnits="userSpaceOnUse" x="32" y="3" width="51" height="51">
<rect x="32.4163" y="3.33414" width="50" height="50" fill="#D9D9D9"/>
</mask>
<g mask="url(#mask0_1_362)">
<path d="M52.3125 40.8341L40.4375 28.9591L43.4062 25.9904L52.3125 34.8966L71.4271 15.7821L74.3958 18.7508L52.3125 40.8341Z" fill="#097807"/>
</g>
</svg>
