<svg width="114" height="100" viewBox="0 0 114 100" fill="none" xmlns="http://www.w3.org/2000/svg">
<path d="M5.15723 38.5777L57.0555 0L109.348 41.3227L59.7295 70.8246L32.7912 64.666L5.15723 38.5777Z" fill="#EDEFF0"/>
<path d="M35.0637 89.0469H9.42472C9.26729 89.0471 9.11136 89.0161 8.96585 88.9559C8.82035 88.8956 8.68812 88.8071 8.57673 88.6955C8.46533 88.5839 8.37697 88.4514 8.31667 88.3056C8.25638 88.1597 8.22534 88.0034 8.22534 87.8455C8.22534 87.6876 8.25638 87.5312 8.31667 87.3853C8.37697 87.2395 8.46533 87.107 8.57673 86.9954C8.68812 86.8838 8.82035 86.7953 8.96585 86.735C9.11136 86.6748 9.26729 86.6438 9.42472 86.644H35.0637C35.2212 86.6438 35.3771 86.6748 35.5226 86.735C35.6681 86.7953 35.8003 86.8838 35.9117 86.9954C36.0231 87.107 36.1115 87.2395 36.1718 87.3853C36.2321 87.5312 36.2631 87.6876 36.2631 87.8455C36.2631 88.0034 36.2321 88.1597 36.1718 88.3056C36.1115 88.4514 36.0231 88.5839 35.9117 88.6955C35.8003 88.8071 35.6681 88.8956 35.5226 88.9559C35.3771 89.0161 35.2212 89.0471 35.0637 89.0469Z" fill="#2B363C"/>
<path d="M18.6234 83.8813H9.42472C9.26729 83.8815 9.11136 83.8506 8.96585 83.7903C8.82035 83.73 8.68812 83.6416 8.57673 83.53C8.46533 83.4184 8.37697 83.2859 8.31667 83.14C8.25638 82.9942 8.22534 82.8378 8.22534 82.6799C8.22534 82.522 8.25638 82.3657 8.31667 82.2198C8.37697 82.0739 8.46533 81.9414 8.57673 81.8299C8.68812 81.7183 8.82035 81.6298 8.96585 81.5695C9.11136 81.5092 9.26729 81.4783 9.42472 81.4785H18.6234C18.7809 81.4783 18.9368 81.5092 19.0823 81.5695C19.2278 81.6298 19.36 81.7183 19.4714 81.8299C19.5828 81.9414 19.6712 82.0739 19.7315 82.2198C19.7918 82.3657 19.8228 82.522 19.8228 82.6799C19.8228 82.8378 19.7918 82.9942 19.7315 83.14C19.6712 83.2859 19.5828 83.4184 19.4714 83.53C19.36 83.6416 19.2278 83.73 19.0823 83.7903C18.9368 83.8506 18.7809 83.8815 18.6234 83.8813Z" fill="#2B363C"/>
<path d="M57.7838 60.065C57.5889 60.0652 57.3959 60.0273 57.2155 59.9534L25.2083 46.633V4.93803C25.2087 4.56933 25.3549 4.21586 25.6148 3.95515C25.8748 3.69445 26.2272 3.54779 26.5948 3.54736H87.9983C88.3659 3.54779 88.7183 3.69445 88.9782 3.95515C89.2382 4.21586 89.3844 4.56933 89.3848 4.93803V46.6621L89.3247 46.6879L58.3693 59.9468C58.1839 60.025 57.9849 60.0652 57.7838 60.065Z" fill="white"/>
<path d="M57.7852 60.1645C57.5774 60.1647 57.3715 60.1243 57.1791 60.0455L25.1106 46.6996V4.93824C25.111 4.54321 25.2677 4.16448 25.5462 3.88515C25.8247 3.60582 26.2023 3.44869 26.5962 3.44824H87.9997C88.3935 3.44869 88.7711 3.60582 89.0496 3.88515C89.3281 4.16448 89.4848 4.54321 89.4852 4.93824V46.7279L58.4096 60.0383C58.2119 60.1218 57.9996 60.1646 57.7852 60.1645ZM25.5067 46.4342L57.3302 59.6782C57.627 59.799 57.9595 59.797 58.2548 59.6726L89.0891 46.4656V4.93824C89.0888 4.64855 88.9739 4.37083 88.7696 4.16599C88.5654 3.96115 88.2885 3.84592 87.9997 3.84558H26.5962C26.3073 3.84592 26.0304 3.96115 25.8262 4.16599C25.622 4.37083 25.5071 4.64855 25.5068 4.93824L25.5067 46.4342Z" fill="#AAAFB1"/>
<path d="M112.065 36.8237H112.025L89.2863 46.5624L58.1746 59.8869C58.053 59.9382 57.9226 59.965 57.7907 59.9657C57.6588 59.9663 57.5281 59.9409 57.406 59.8909L25.3078 46.5346L2.01012 36.8396L1.97452 36.8237H1.93487C1.56727 36.8241 1.21483 36.9708 0.954895 37.2315C0.694958 37.4922 0.548748 37.8457 0.54834 38.2144V98.609C0.548748 98.9777 0.694958 99.3312 0.954895 99.5919C1.21483 99.8526 1.56727 99.9993 1.93487 99.9997H112.065C112.433 99.9993 112.785 99.8526 113.045 99.5919C113.305 99.3312 113.451 98.9777 113.452 98.609V38.2144C113.451 37.8457 113.305 37.4922 113.045 37.2315C112.785 36.9708 112.433 36.8241 112.065 36.8237ZM113.055 98.609C113.055 98.8724 112.951 99.1251 112.765 99.3113C112.58 99.4976 112.328 99.6023 112.065 99.6024H1.93487C1.67224 99.6023 1.42039 99.4976 1.23468 99.3113C1.04897 99.1251 0.944596 98.8724 0.944492 98.609V38.2144C0.944851 37.9575 1.0442 37.7107 1.22175 37.5256C1.39931 37.3405 1.64134 37.2314 1.89725 37.2211L25.3078 46.9637L57.2535 60.2584C57.5993 60.3996 57.9868 60.3974 58.3311 60.2525L89.2863 46.9935L112.105 37.2211C112.36 37.2321 112.602 37.3416 112.779 37.5266C112.956 37.7116 113.055 37.9579 113.055 38.2144V98.609Z" fill="#80878A"/>
<mask id="mask0_2_3850" style="mask-type:alpha" maskUnits="userSpaceOnUse" x="32" y="3" width="51" height="51">
<rect x="32.4163" y="3.33398" width="50" height="50" fill="#D9D9D9"/>
</mask>
<g mask="url(#mask0_2_3850)">
<path d="M52.3125 40.8338L40.4375 28.9588L43.4062 25.9901L52.3125 34.8963L71.4271 15.7817L74.3958 18.7505L52.3125 40.8338Z" fill="#097807"/>
</g>
</svg>
