<svg width="28" height="28" viewBox="0 0 28 28" fill="none" xmlns="http://www.w3.org/2000/svg">
<path d="M5.53332 21.2668C6.84443 20.3852 8.18888 19.7093 9.56666 19.2391C10.9444 18.7686 12.4222 18.5334 14 18.5334C15.5778 18.5334 17.0592 18.7686 18.4443 19.2391C19.8297 19.7093 21.1779 20.3852 22.489 21.2668C23.4001 20.163 24.0649 19.0111 24.4833 17.8111C24.9018 16.6111 25.111 15.3407 25.111 14.0001C25.111 10.8667 24.0425 8.23153 21.9057 6.09442C19.7685 3.95753 17.1333 2.88908 14 2.88908C10.8667 2.88908 8.23143 3.95753 6.09432 6.09442C3.95743 8.23153 2.88899 10.8667 2.88899 14.0001C2.88899 15.3407 3.10188 16.6111 3.52766 17.8111C3.95366 19.0111 4.62221 20.163 5.53332 21.2668ZM13.996 15.1111C12.7024 15.1111 11.613 14.6672 10.7277 13.7794C9.84255 12.8914 9.39999 11.8006 9.39999 10.5071C9.39999 9.21353 9.84399 8.12419 10.732 7.23908C11.6198 6.35375 12.7104 5.91108 14.004 5.91108C15.2975 5.91108 16.387 6.35508 17.2723 7.24308C18.1574 8.13108 18.6 9.22186 18.6 10.5154C18.6 11.809 18.156 12.8983 17.268 13.7834C16.3802 14.6685 15.2895 15.1111 13.996 15.1111ZM13.991 27.3334C12.1443 27.3334 10.409 26.9834 8.78499 26.2834C7.16077 25.5834 5.74799 24.6297 4.54666 23.4224C3.3451 22.2149 2.3981 20.8012 1.70566 19.1814C1.01299 17.5616 0.666656 15.8309 0.666656 13.9891C0.666656 12.1473 1.01666 10.4164 1.71666 8.79642C2.41666 7.17664 3.37032 5.76675 4.57766 4.56675C5.78521 3.36675 7.19888 2.41675 8.81866 1.71675C10.4384 1.01675 12.1692 0.666748 14.011 0.666748C15.8528 0.666748 17.5837 1.01675 19.2037 1.71675C20.8234 2.41675 22.2333 3.36675 23.4333 4.56675C24.6333 5.76675 25.5833 7.17786 26.2833 8.80008C26.9833 10.4223 27.3333 12.1536 27.3333 13.9941C27.3333 15.8347 26.9833 17.5644 26.2833 19.1831C25.5833 20.8017 24.6333 22.2149 23.4333 23.4224C22.2333 24.6297 20.8212 25.5834 19.197 26.2834C17.573 26.9834 15.8377 27.3334 13.991 27.3334Z" fill="white"/>
</svg>
